<svg width="20" height="24" viewBox="0 0 20 24" fill="none" xmlns="http://www.w3.org/2000/svg">
<path d="M2.82135 24C2.20713 24 1.69469 23.7947 1.28402 23.384C0.873353 22.9733 0.667576 22.4609 0.666687 21.8467V2.15333C0.666687 1.54 0.872465 1.028 1.28402 0.617333C1.69558 0.206667 2.20802 0.000888889 2.82135 0H17.18C17.7934 0 18.3058 0.205778 18.7174 0.617333C19.1289 1.02889 19.3342 1.54133 19.3334 2.15467V21.8467C19.3334 22.46 19.128 22.9724 18.7174 23.384C18.3067 23.7956 17.7938 24.0009 17.1787 24H2.82135ZM2.82135 22.6667H17.18C17.3845 22.6667 17.5725 22.5813 17.744 22.4107C17.9156 22.24 18.0009 22.0516 18 21.8453V2.15467C18 1.94933 17.9147 1.76089 17.744 1.58933C17.5734 1.41778 17.3849 1.33244 17.1787 1.33333H15.3334V8.552C15.3334 8.76711 15.2436 8.92711 15.064 9.032C14.8845 9.13689 14.7009 9.13156 14.5134 9.016L13.212 8.24533C13.0245 8.12978 12.8396 8.072 12.6574 8.072C12.4751 8.072 12.2902 8.12978 12.1027 8.24533L10.8027 9.016C10.6142 9.13156 10.4334 9.13689 10.26 9.032C10.0867 8.92711 10 8.76711 10 8.552V1.33333H2.82135C2.61602 1.33333 2.42758 1.41867 2.25602 1.58933C2.08446 1.76 1.99913 1.948 2.00002 2.15333V21.8467C2.00002 22.0511 2.08535 22.2391 2.25602 22.4107C2.42669 22.5822 2.61469 22.6676 2.82002 22.6667M10 8.57733V8.552C10 8.76711 10.0867 8.92711 10.26 9.032C10.4334 9.13689 10.6142 9.13156 10.8027 9.016L12.1027 8.24533C12.2902 8.12978 12.4751 8.072 12.6574 8.072C12.8396 8.072 13.0245 8.12978 13.212 8.24533L14.512 9.016C14.7005 9.13156 14.8845 9.13689 15.064 9.032C15.2436 8.92711 15.3334 8.76711 15.3334 8.552V8.57733C15.3334 8.77555 15.2436 8.92711 15.064 9.032C14.8845 9.13689 14.7005 9.14 14.512 9.04133L13.212 8.24533C13.0245 8.12978 12.8396 8.072 12.6574 8.072C12.4751 8.072 12.2902 8.12978 12.1027 8.24533L10.8027 9.04133C10.6142 9.14 10.4334 9.13689 10.26 9.032C10.0867 8.92711 10 8.77555 10 8.57733Z" fill="#3879E9"/>
</svg>
